<?xml version="1.0" encoding="UTF-8"?>
<svg width="56px" height="56px" viewBox="0 0 56 56" version="1.1" xmlns="http://www.w3.org/2000/svg" xmlns:xlink="http://www.w3.org/1999/xlink">
    <!-- Generator: Sketch 48.2 (47327) - http://www.bohemiancoding.com/sketch -->
    <title>Group</title>
    <desc>Created with Sketch.</desc>
    <defs></defs>
    <g id="components/sidebar/side-bar-quickwin-v2" stroke="none" stroke-width="1" fill="none" fill-rule="evenodd" transform="translate(-81.000000, -32.000000)">
        <g id="side-bar">
            <g id="images/apps/maif-labs" transform="translate(42.000000, 32.000000)">
                <g id="Group" transform="translate(39.000000, 0.000000)">
                    <rect id="Rectangle-1" fill="#5A9B9E" x="0" y="0" width="56" height="56" rx="10"></rect>
                    <path d="M28.2333333,51.24 L30.7533333,51.24 L30.7533333,52.5 L26.656,52.5 L26.656,45.7006667 L28.2333333,45.7006667 L28.2333333,51.24 Z M37.828,52.5 L36.6053333,52.5 C36.4684438,52.5 36.3556671,52.4681114 36.267,52.4043333 C36.1783329,52.3405552 36.1168891,52.2588894 36.0826667,52.1593333 L35.6813333,50.974 L33.096,50.974 L32.6946667,52.1593333 C32.6635554,52.2464449 32.6028893,52.3249997 32.5126667,52.395 C32.422444,52.4650004 32.3120007,52.5 32.1813333,52.5 L30.9493333,52.5 L33.5813333,45.7006667 L35.196,45.7006667 L37.828,52.5 Z M33.46,49.9006667 L35.3173333,49.9006667 L34.692,48.0386667 C34.6515554,47.9204439 34.6041114,47.781223 34.5496667,47.621 C34.4952219,47.460777 34.4415558,47.2873343 34.3886667,47.1006667 C34.3388886,47.2904454 34.2875558,47.4662214 34.2346667,47.628 C34.1817775,47.7897786 34.1320002,47.9297772 34.0853333,48.048 L33.46,49.9006667 Z M38.3786667,52.5 L38.3786667,45.7006667 L40.88,45.7006667 C41.3497801,45.7006667 41.7495539,45.7442218 42.0793333,45.8313333 C42.4091128,45.9184449 42.6782212,46.0413325 42.8866667,46.2 C43.0951122,46.3586675 43.2467773,46.5515544 43.3416667,46.7786667 C43.436556,47.0057789 43.484,47.2593319 43.484,47.5393333 C43.484,47.6917785 43.4622224,47.8387771 43.4186667,47.9803333 C43.3751109,48.1218896 43.3066671,48.2548883 43.2133333,48.3793333 C43.1199995,48.5037784 43.000223,48.6165551 42.854,48.7176667 C42.707777,48.8187783 42.532001,48.9066663 42.3266667,48.9813333 C42.7746689,49.0902228 43.1059989,49.2667766 43.3206667,49.511 C43.5353344,49.7552234 43.6426667,50.0686648 43.6426667,50.4513333 C43.6426667,50.7406681 43.5866672,51.0097765 43.4746667,51.2586667 C43.3626661,51.5075568 43.1985566,51.7245546 42.9823333,51.9096667 C42.76611,52.0947787 42.4993349,52.2394439 42.182,52.3436667 C41.8646651,52.4478894 41.5022243,52.5 41.0946667,52.5 L38.3786667,52.5 Z M39.956,49.616 L39.956,51.31 L41.0666667,51.31 C41.2751122,51.31 41.4454438,51.2835558 41.5776667,51.2306667 C41.7098895,51.1777775 41.813333,51.1093338 41.888,51.0253333 C41.962667,50.9413329 42.0139999,50.846445 42.042,50.7406667 C42.0700001,50.6348884 42.084,50.5275561 42.084,50.4186667 C42.084,50.2942216 42.0676668,50.1822227 42.035,50.0826667 C42.0023332,49.9831106 41.9463337,49.8991115 41.867,49.8306667 C41.7876663,49.7622219 41.6826673,49.7093335 41.552,49.672 C41.4213327,49.6346665 41.2564454,49.616 41.0573333,49.616 L39.956,49.616 Z M39.956,48.5613333 L40.7773333,48.5613333 C40.9515564,48.5613333 41.108666,48.548889 41.2486667,48.524 C41.3886674,48.499111 41.5076662,48.4555559 41.6056667,48.3933333 C41.7036672,48.3311108 41.7783331,48.2455561 41.8296667,48.1366667 C41.8810003,48.0277772 41.9066667,47.8908897 41.9066667,47.726 C41.9066667,47.5642214 41.8864446,47.4296672 41.846,47.3223333 C41.8055554,47.2149995 41.7433338,47.128667 41.6593333,47.0633333 C41.5753329,46.9979997 41.4687784,46.9513335 41.3396667,46.9233333 C41.2105549,46.8953332 41.0573342,46.8813333 40.88,46.8813333 L39.956,46.8813333 L39.956,48.5613333 Z M48.2906667,47.082 C48.2439998,47.156667 48.1950003,47.2126665 48.1436667,47.25 C48.0923331,47.2873335 48.0262226,47.306 47.9453333,47.306 C47.8737774,47.306 47.7967782,47.2834447 47.7143333,47.2383333 C47.6318885,47.193222 47.5385561,47.1426669 47.4343333,47.0866667 C47.3301106,47.0306664 47.2111118,46.9801113 47.0773333,46.935 C46.9435549,46.8898887 46.791112,46.8673333 46.62,46.8673333 C46.324443,46.8673333 46.1043341,46.9303327 45.9596667,47.0563333 C45.8149993,47.182334 45.7426667,47.3526656 45.7426667,47.5673333 C45.7426667,47.7042229 45.7862218,47.8177773 45.8733333,47.908 C45.9604449,47.9982227 46.0747771,48.0759997 46.2163333,48.1413333 C46.3578896,48.206667 46.5196658,48.2665553 46.7016667,48.321 C46.8836676,48.3754447 47.0695546,48.4361108 47.2593333,48.503 C47.4491121,48.5698892 47.6349991,48.648444 47.817,48.7386667 C47.9990009,48.8288893 48.1607771,48.9439993 48.3023333,49.084 C48.4438896,49.2240007 48.5582218,49.3943323 48.6453333,49.595 C48.7324449,49.7956677 48.776,50.0375541 48.776,50.3206667 C48.776,50.6348905 48.7215561,50.9288875 48.6126667,51.2026667 C48.5037772,51.4764458 48.3458899,51.7152212 48.139,51.919 C47.9321101,52.1227788 47.6770015,52.2829994 47.3736667,52.3996667 C47.0703318,52.5163339 46.7257797,52.5746667 46.34,52.5746667 C46.1284434,52.5746667 45.9130011,52.5528891 45.6936667,52.5093333 C45.4743322,52.4657776 45.262001,52.4043337 45.0566667,52.325 C44.8513323,52.2456663 44.6584453,52.1515561 44.478,52.0426667 C44.2975547,51.9337772 44.1404451,51.8124451 44.0066667,51.6786667 L44.4733333,50.9413333 C44.5075557,50.8853331 44.5557775,50.8402224 44.618,50.806 C44.6802225,50.7717776 44.7471108,50.7546667 44.8186667,50.7546667 C44.9120005,50.7546667 45.0061106,50.7842219 45.101,50.8433333 C45.1958894,50.9024447 45.3032216,50.9677774 45.423,51.0393333 C45.5427784,51.1108892 45.6804437,51.1762219 45.836,51.2353333 C45.9915563,51.2944447 46.1751101,51.324 46.3866667,51.324 C46.6728903,51.324 46.8953325,51.2610006 47.054,51.135 C47.2126675,51.0089994 47.292,50.8091125 47.292,50.5353333 C47.292,50.3766659 47.2484449,50.2475561 47.1613333,50.148 C47.0742218,50.0484439 46.9598896,49.9660003 46.8183333,49.9006667 C46.6767771,49.835333 46.5157787,49.777778 46.3353333,49.728 C46.154888,49.678222 45.9697787,49.6230003 45.78,49.5623333 C45.5902213,49.5016664 45.405112,49.4270004 45.2246667,49.3383333 C45.0442213,49.2496662 44.8832229,49.1330007 44.7416667,48.9883333 C44.6001104,48.8436659 44.4857782,48.6632233 44.3986667,48.447 C44.3115551,48.2307767 44.268,47.9640016 44.268,47.6466667 C44.268,47.3915543 44.3193328,47.1426679 44.422,46.9 C44.5246672,46.6573321 44.6755546,46.4411121 44.8746667,46.2513333 C45.0737788,46.0615546 45.3179986,45.9098895 45.6073333,45.7963333 C45.8966681,45.6827772 46.2279981,45.626 46.6013333,45.626 C46.8097788,45.626 47.0127768,45.6423332 47.2103333,45.675 C47.4078899,45.7076668 47.5953324,45.7558886 47.7726667,45.8196667 C47.9500009,45.8834448 48.1156659,45.9596662 48.2696667,46.0483333 C48.4236674,46.1370004 48.5613327,46.2373328 48.6826667,46.3493333 L48.2906667,47.082 Z" id="Labs" fill="#32617F"></path>
                    <path d="M32.6666667,8.16666667 L32.6666667,16.6515152 L42.3596681,34.2751542 C43.9566064,37.1786783 42.8974093,40.8270239 39.9938852,42.4239621 C39.1080153,42.9111906 38.1133905,43.1666667 37.1023727,43.1666667 L18.8976273,43.1666667 C15.5839188,43.1666667 12.8976273,40.4803752 12.8976273,37.1666667 C12.8976273,36.1556489 13.1531034,35.1610241 13.6403319,34.2751542 L23.3333333,16.6515152 L23.3333333,8.16666667 C22.6890011,8.16666667 22.1666667,7.64433221 22.1666667,7 C22.1666667,6.35566779 22.6890011,5.83333333 23.3333333,5.83333333 L32.6666667,5.83333333 C33.3109989,5.83333333 33.8333333,6.35566779 33.8333333,7 C33.8333333,7.64433221 33.3109989,8.16666667 32.6666667,8.16666667 Z" id="Combined-Shape" fill="#32617F"></path>
                    <path d="M7,36.1666667 L7,26.8333333 L11.0833333,26.8333333 L14,32.6666667 L16.9166667,26.8333333 L21,26.8333333 L21,36.1666667 L17.5,36.1666667 L17.5,29.1666667 L14,36.1666667 L12.25,36.1666667 L8.75,29.1666667 L8.75,36.1666667 L7,36.1666667 Z M21.5833333,36.1666667 L25.6666667,26.8333333 L29.1666667,26.8333333 L33.25,36.1666667 L29.75,36.1666667 L29.1666667,34.4166667 L24.5,34.4166667 L23.7416382,36.1666667 L21.5833333,36.1666667 Z M25.0833333,32.6666667 L28.5833333,32.6666667 L26.8333333,29.1666667 L25.0833333,32.6666667 Z M34.4166667,26.8333333 L37.3333333,26.8333333 L37.3333333,36.1666667 L34.4166667,36.1666667 L34.4166667,26.8333333 Z M39.6666667,26.8333333 L49,26.8333333 L49,28.5833333 L42.5833333,28.5833333 L42.5833333,31.5 L49,31.5 L49,33.25 L42.5833333,33.25 L42.5833333,36.1666667 L39.6666667,36.1666667 L39.6666667,26.8333333 Z" id="Combined-Shape" fill="#FFFFFF"></path>
                </g>
            </g>
        </g>
    </g>
</svg>