<?xml version="1.0" encoding="UTF-8"?>
<svg width="160px" height="160px" viewBox="0 0 160 160" version="1.1" xmlns="http://www.w3.org/2000/svg" xmlns:xlink="http://www.w3.org/1999/xlink">
    <!-- Generator: Sketch 48.2 (47327) - http://www.bohemiancoding.com/sketch -->
    <title>images/apps/Nestor</title>
    <desc>Created with Sketch.</desc>
    <defs></defs>
    <g id="Symbols" stroke="none" stroke-width="1" fill="none" fill-rule="evenodd">
        <g id="images/apps/Nestor" fill-rule="nonzero">
            <g id="Group">
                <path d="M144.262295,160 L15.7377049,160 C6.99453552,160 0,152.861806 0,144.330794 L0,15.6692057 C0,6.9640914 7.16939891,0 15.7377049,0 L144.262295,0 C153.005464,0 160,7.13819369 160,15.6692057 L160,144.330794 C160,153.035909 153.005464,160 144.262295,160 Z" id="Shape" fill="#D20000"></path>
                <path d="M133.402186,52.4277457 L79.9956521,80 L106.005328,25.8959538 C98.2024252,22.0809249 89.3591354,20 79.9956521,20 C46.876665,20 20,46.8786127 20,80 C20,113.121387 46.876665,140 79.9956521,140 C113.114639,140 139.991304,113.121387 139.991304,80 C140.164702,69.9421965 137.737132,60.5780347 133.402186,52.4277457 Z" id="Shape" fill="#FFFFFF"></path>
                <path d="M82.5,77.6802885 L98.7259615,43.7860577 C93.8581731,41.4423077 88.2692308,40 82.5,40 C61.7668269,40 45,56.7668269 45,77.5 C45,98.2331731 61.7668269,115 82.5,115 C103.233173,115 120,98.2331731 120,77.5 C120,71.3701923 118.557692,65.4206731 115.853365,60.3725962 L82.5,77.6802885 Z" id="Shape" fill="#CCC9B5"></path>
                <path d="M80,80.1764706 L86.5294118,66.5882353 C84.5882353,65.7058824 82.2941176,65 80,65 C71.7058824,65 65,71.7058824 65,80 C65,88.2941176 71.7058824,95 80,95 C88.2941176,95 95,88.2941176 95,80 C95,77.5294118 94.4705882,75.2352941 93.2352941,73.1176471 L80,80.1764706 Z" id="Shape" fill="#000000"></path>
            </g>
        </g>
    </g>
</svg>