<?xml version="1.0" encoding="UTF-8"?>
<svg width="134px" height="85px" viewBox="0 0 134 85" version="1.1" xmlns="http://www.w3.org/2000/svg" xmlns:xlink="http://www.w3.org/1999/xlink">
    <!-- Generator: Sketch 48.2 (47327) - http://www.bohemiancoding.com/sketch -->
    <title>images/apps/maif-labs</title>
    <desc>Created with Sketch.</desc>
    <defs></defs>
    <g id="components/sidebar/side-bar-quickwin-v2" stroke="none" stroke-width="1" fill="none" fill-rule="evenodd" transform="translate(-42.000000, -32.000000)">
        <g id="side-bar">
            <g id="images/apps/maif-labs" transform="translate(42.000000, 32.000000)">
                <path d="M9.4555,71.7032 L10.5275,71.7032 L10.5275,84.5002 L9.4465,84.5002 L2.0895,73.5492 L2.0895,84.5002 L0.9995,84.5002 L0.9995,71.7032 L2.0895,71.7032 L9.4555,82.6632 L9.4555,71.7032 Z M32.501,72.5557 L32.501,74.9907 L34.47,74.9907 L34.47,75.8517 L32.501,75.8517 L32.501,82.1957 C32.501,82.7237 32.596,83.1177 32.786,83.3747 C32.977,83.6327 33.295,83.7617 33.74,83.7617 C33.916,83.7617 34.2,83.7327 34.593,83.6737 L34.637,84.5277 C34.361,84.6267 33.986,84.6757 33.512,84.6757 C32.791,84.6757 32.267,84.4667 31.939,84.0467 C31.61,83.6287 31.446,83.0117 31.446,82.1977 L31.446,75.8517 L29.697,75.8517 L29.697,74.9907 L31.446,74.9907 L31.446,72.5557 L32.501,72.5557 Z M36.7637,79.8946 C36.7637,81.0316 37.0587,81.9646 37.6467,82.6936 C38.2367,83.4236 39.0077,83.7886 39.9627,83.7886 C40.9117,83.7886 41.6817,83.4236 42.2697,82.6936 C42.8597,81.9646 43.1537,81.0016 43.1537,79.8066 L43.1537,79.6046 C43.1537,78.8776 43.0187,78.2126 42.7487,77.6096 C42.4797,77.0056 42.1017,76.5386 41.6157,76.2076 C41.1287,75.8766 40.5727,75.7106 39.9457,75.7106 C39.0077,75.7106 38.2427,76.0786 37.6517,76.8136 C37.0597,77.5496 36.7637,78.5116 36.7637,79.7016 L36.7637,79.8946 Z M35.7087,79.6046 C35.7087,78.6906 35.8857,77.8676 36.2407,77.1346 C36.5947,76.4026 37.0957,75.8326 37.7437,75.4256 C38.3907,75.0186 39.1247,74.8146 39.9457,74.8146 C41.2107,74.8146 42.2367,75.2586 43.0217,76.1456 C43.8067,77.0336 44.1997,78.2096 44.1997,79.6746 L44.1997,79.8946 C44.1997,80.8146 44.0217,81.6426 43.6677,82.3766 C43.3127,83.1136 42.8137,83.6796 42.1687,84.0786 C41.5247,84.4766 40.7887,84.6756 39.9627,84.6756 C38.7027,84.6756 37.6787,84.2326 36.8907,83.3436 C36.1027,82.4576 35.7087,81.2806 35.7087,79.8156 L35.7087,79.6046 Z M50.4053,75.8867 C50.1823,75.8457 49.9453,75.8247 49.6933,75.8247 C49.0373,75.8247 48.4813,76.0087 48.0283,76.3747 C47.5733,76.7407 47.2503,77.2727 47.0563,77.9697 L47.0563,84.4997 L46.0103,84.4997 L46.0103,74.9907 L47.0393,74.9907 L47.0563,76.5017 C47.6133,75.3767 48.5073,74.8147 49.7373,74.8147 C50.0303,74.8147 50.2613,74.8527 50.4313,74.9287 L50.4053,75.8867 Z M57.0596,83.586 L63.3786,83.586 L63.3786,84.5 L55.9696,84.5 L55.9696,71.703 L57.0596,71.703 L57.0596,83.586 Z M97.8418,78.3565 L97.8418,83.5855 L101.0848,83.5855 C102.0108,83.5855 102.7438,83.3505 103.2858,82.8795 C103.8278,82.4085 104.0998,81.7545 104.0998,80.9185 C104.0998,80.1285 103.8408,79.5045 103.3208,79.0455 C102.8038,78.5855 102.0868,78.3565 101.1728,78.3565 L97.8418,78.3565 Z M97.8418,77.4425 L100.7948,77.4425 C101.6968,77.4245 102.3958,77.2115 102.8918,76.8045 C103.3858,76.3965 103.6338,75.8015 103.6338,75.0215 C103.6338,74.1995 103.3768,73.5935 102.8638,73.2025 C102.3518,72.8125 101.5768,72.6175 100.5398,72.6175 L97.8418,72.6175 L97.8418,77.4425 Z M96.7608,84.5005 L96.7608,71.7035 L100.5398,71.7035 C101.9108,71.7035 102.9508,71.9855 103.6598,72.5515 C104.3688,73.1175 104.7238,73.9515 104.7238,75.0535 C104.7238,75.7165 104.5438,76.2925 104.1828,76.7815 C103.8228,77.2715 103.3288,77.6225 102.7018,77.8335 C103.4458,77.9965 104.0448,78.3625 104.4988,78.9305 C104.9528,79.4995 105.1808,80.1545 105.1808,80.8985 C105.1808,82.0295 104.8158,82.9125 104.0868,83.5465 C103.3568,84.1815 102.3418,84.5005 101.0408,84.5005 L96.7608,84.5005 Z M117.4688,74.9903 L117.5038,76.6163 C117.8618,76.0303 118.3068,75.5833 118.8398,75.2763 C119.3728,74.9683 119.9618,74.8143 120.6068,74.8143 C121.6258,74.8143 122.3848,75.1013 122.8828,75.6763 C123.3808,76.2503 123.6328,77.1113 123.6388,78.2603 L123.6388,84.5003 L122.5928,84.5003 L122.5928,78.2513 C122.5868,77.4013 122.4058,76.7683 122.0528,76.3523 C121.6978,75.9363 121.1308,75.7283 120.3518,75.7283 C119.7008,75.7283 119.1248,75.9323 118.6248,76.3393 C118.1228,76.7463 117.7528,77.2963 117.5128,77.9873 L117.5128,84.5003 L116.4668,84.5003 L116.4668,74.9903 L117.4688,74.9903 Z M128.2529,79.71 L127.0489,80.87 L127.0489,84.5 L125.9939,84.5 L125.9939,71 L127.0489,71 L127.0489,79.64 L128.0419,78.567 L131.6809,74.99 L133.0079,74.99 L128.9739,78.998 L133.3589,84.5 L132.1029,84.5 L128.2529,79.71 Z M109.8838,83.7442 C110.5868,83.7442 111.2148,83.5742 111.7698,83.2342 C112.3218,82.8942 112.7258,82.4402 112.9778,81.8722 L112.9778,79.7802 L111.0968,79.7802 C110.0478,79.7922 109.2278,79.9842 108.6358,80.3562 C108.0438,80.7282 107.7478,81.2392 107.7478,81.8902 C107.7478,82.4232 107.9458,82.8652 108.3418,83.2172 C108.7368,83.5682 109.2508,83.7442 109.8838,83.7442 Z M113.1888,84.5002 C113.0828,84.2012 113.0158,83.7592 112.9868,83.1732 C112.6168,83.6532 112.1468,84.0232 111.5758,84.2852 C111.0038,84.5452 110.3998,84.6762 109.7608,84.6762 C108.8468,84.6762 108.1068,84.4212 107.5408,83.9112 C106.9758,83.4012 106.6938,82.7572 106.6938,81.9772 C106.6938,81.0522 107.0778,80.3192 107.8498,79.7802 C108.6188,79.2412 109.6938,78.9722 111.0708,78.9722 L112.9778,78.9722 L112.9778,77.8902 C112.9778,77.2112 112.7678,76.6762 112.3498,76.2862 C111.9298,75.8972 111.3198,75.7022 110.5168,75.7022 C109.7838,75.7022 109.1778,75.8902 108.6968,76.2652 C108.2168,76.6402 107.9768,77.0912 107.9768,77.6182 L106.9218,77.6092 C106.9218,76.8532 107.2738,76.1992 107.9768,75.6452 C108.6798,75.0912 109.5438,74.8142 110.5698,74.8142 C111.6298,74.8142 112.4658,75.0792 113.0778,75.6102 C113.6908,76.1402 114.0058,76.8802 114.0238,77.8292 L114.0238,82.3292 C114.0238,83.2492 114.1198,83.9372 114.3138,84.3942 L114.3138,84.5002 L113.1888,84.5002 Z M89.4395,82.083 C89.4395,81.562 89.2295,81.143 88.8105,80.826 C88.3915,80.51 87.7605,80.262 86.9175,80.083 C86.0735,79.905 85.4185,79.7 84.9535,79.468 C84.4865,79.237 84.1405,78.954 83.9165,78.62 C83.6895,78.286 83.5775,77.882 83.5775,77.407 C83.5775,76.657 83.8905,76.038 84.5175,75.548 C85.1445,75.059 85.9475,74.814 86.9255,74.814 C87.9865,74.814 88.8375,75.077 89.4785,75.601 C90.1215,76.125 90.4415,76.81 90.4415,77.653 L89.3865,77.653 C89.3865,77.097 89.1545,76.634 88.6875,76.265 C88.2225,75.896 87.6345,75.711 86.9255,75.711 C86.2345,75.711 85.6785,75.865 85.2595,76.172 C84.8405,76.48 84.6315,76.88 84.6315,77.372 C84.6315,77.847 84.8055,78.214 85.1545,78.475 C85.5025,78.736 86.1385,78.975 87.0625,79.191 C87.9845,79.408 88.6755,79.64 89.1365,79.886 C89.5955,80.132 89.9375,80.428 90.1605,80.773 C90.3825,81.119 90.4945,81.538 90.4945,82.03 C90.4945,82.833 90.1695,83.475 89.5235,83.955 C88.8755,84.436 88.0305,84.676 86.9875,84.676 C85.8795,84.676 84.9815,84.408 84.2935,83.871 C83.6045,83.336 83.2605,82.657 83.2605,81.837 L84.3155,81.837 C84.3565,82.452 84.6155,82.932 85.0935,83.273 C85.5705,83.617 86.2025,83.788 86.9875,83.788 C87.7195,83.788 88.3115,83.627 88.7625,83.305 C89.2135,82.982 89.4395,82.575 89.4395,82.083 Z M80.7285,79.6572 C80.7285,78.4032 80.4855,77.4352 79.9995,76.7522 C79.5125,76.0702 78.8275,75.7282 77.9425,75.7282 C77.2685,75.7282 76.6975,75.8942 76.2285,76.2252 C75.7595,76.5562 75.4055,77.0412 75.1655,77.6792 L75.1655,81.9692 C75.6925,83.1642 76.6245,83.7612 77.9595,83.7612 C78.8275,83.7612 79.5045,83.4192 79.9955,82.7332 C80.4835,82.0482 80.7285,81.0222 80.7285,79.6572 Z M81.7835,79.8422 C81.7835,81.3242 81.4555,82.5002 80.7985,83.3712 C80.1425,84.2402 79.2605,84.6762 78.1535,84.6762 C76.8295,84.6762 75.8275,84.1832 75.1475,83.1992 L75.1035,84.5002 L74.1195,84.5002 L74.1195,71.0002 L75.1655,71.0002 L75.1655,76.3702 C75.8325,75.3332 76.8235,74.8142 78.1355,74.8142 C79.2605,74.8142 80.1495,75.2432 80.8035,76.1022 C81.4565,76.9602 81.7835,78.1542 81.7835,79.6832 L81.7835,79.8422 Z M67.5449,83.7442 C68.2479,83.7442 68.8759,83.5742 69.4309,83.2342 C69.9829,82.8942 70.3869,82.4402 70.6389,81.8722 L70.6389,79.7802 L68.7579,79.7802 C67.7089,79.7922 66.8889,79.9842 66.2969,80.3562 C65.7049,80.7282 65.4089,81.2392 65.4089,81.8902 C65.4089,82.4232 65.6069,82.8652 66.0029,83.2172 C66.3979,83.5682 66.9119,83.7442 67.5449,83.7442 Z M70.8499,84.5002 C70.7439,84.2012 70.6769,83.7592 70.6479,83.1732 C70.2779,83.6532 69.8079,84.0232 69.2369,84.2852 C68.6649,84.5452 68.0609,84.6762 67.4219,84.6762 C66.5079,84.6762 65.7679,84.4212 65.2019,83.9112 C64.6369,83.4012 64.3549,82.7572 64.3549,81.9772 C64.3549,81.0522 64.7389,80.3192 65.5109,79.7802 C66.2799,79.2412 67.3549,78.9722 68.7319,78.9722 L70.6389,78.9722 L70.6389,77.8902 C70.6389,77.2112 70.4289,76.6762 70.0109,76.2862 C69.5909,75.8972 68.9809,75.7022 68.1779,75.7022 C67.4449,75.7022 66.8389,75.8902 66.3579,76.2652 C65.8779,76.6402 65.6379,77.0912 65.6379,77.6182 L64.5829,77.6092 C64.5829,76.8532 64.9349,76.1992 65.6379,75.6452 C66.3409,75.0912 67.2049,74.8142 68.2309,74.8142 C69.2909,74.8142 70.1269,75.0792 70.7389,75.6102 C71.3519,76.1402 71.6669,76.8802 71.6849,77.8292 L71.6849,82.3292 C71.6849,83.2492 71.7809,83.9372 71.9749,84.3942 L71.9749,84.5002 L70.8499,84.5002 Z M27.8076,82.083 C27.8076,81.562 27.5976,81.143 27.1786,80.826 C26.7596,80.51 26.1286,80.262 25.2856,80.083 C24.4416,79.905 23.7866,79.7 23.3216,79.468 C22.8546,79.237 22.5086,78.954 22.2846,78.62 C22.0576,78.286 21.9456,77.882 21.9456,77.407 C21.9456,76.657 22.2586,76.038 22.8856,75.548 C23.5126,75.059 24.3156,74.814 25.2936,74.814 C26.3546,74.814 27.2056,75.077 27.8466,75.601 C28.4896,76.125 28.8096,76.81 28.8096,77.653 L27.7546,77.653 C27.7546,77.097 27.5226,76.634 27.0556,76.265 C26.5906,75.896 26.0026,75.711 25.2936,75.711 C24.6026,75.711 24.0466,75.865 23.6276,76.172 C23.2086,76.48 22.9996,76.88 22.9996,77.372 C22.9996,77.847 23.1736,78.214 23.5226,78.475 C23.8706,78.736 24.5066,78.975 25.4306,79.191 C26.3526,79.408 27.0436,79.64 27.5046,79.886 C27.9636,80.132 28.3056,80.428 28.5286,80.773 C28.7506,81.119 28.8626,81.538 28.8626,82.03 C28.8626,82.833 28.5376,83.475 27.8916,83.955 C27.2436,84.436 26.3986,84.676 25.3556,84.676 C24.2476,84.676 23.3496,84.408 22.6616,83.871 C21.9726,83.336 21.6286,82.657 21.6286,81.837 L22.6836,81.837 C22.7246,82.452 22.9836,82.932 23.4616,83.273 C23.9386,83.617 24.5706,83.788 25.3556,83.788 C26.0876,83.788 26.6796,83.627 27.1306,83.305 C27.5816,82.982 27.8076,82.575 27.8076,82.083 Z M16.6621,75.711 C15.8711,75.711 15.2041,76.001 14.6631,76.581 C14.1201,77.161 13.7911,77.94 13.6741,78.919 L19.3781,78.919 L19.3781,78.805 C19.3491,77.891 19.0881,77.147 18.5961,76.572 C18.1031,75.998 17.4591,75.711 16.6621,75.711 M16.8551,84.676 C16.0471,84.676 15.3151,84.477 14.6631,84.078 C14.0091,83.68 13.5011,83.125 13.1381,82.412 C12.7741,81.701 12.5931,80.902 12.5931,80.018 L12.5931,79.64 C12.5931,78.726 12.7691,77.902 13.1241,77.17 C13.4781,76.438 13.9731,75.862 14.6051,75.443 C15.2381,75.024 15.9241,74.815 16.6621,74.815 C17.8161,74.815 18.7311,75.209 19.4091,75.997 C20.0851,76.785 20.4241,77.861 20.4241,79.227 L20.4241,79.815 L13.6391,79.815 L13.6391,80.018 C13.6391,81.096 13.9471,81.994 14.5651,82.711 C15.1831,83.43 15.9621,83.788 16.8991,83.788 C17.4621,83.788 17.9581,83.686 18.3901,83.481 C18.8191,83.275 19.2111,82.947 19.5621,82.496 L20.2221,82.997 C19.4481,84.116 18.3261,84.676 16.8551,84.676" id="Fill-1" fill="#32363F"></path>
                <rect id="Rectangle-1" fill="#5A9B9E" x="39" y="0" width="56" height="56" rx="10"></rect>
                <path d="M67.2333333,51.24 L69.7533333,51.24 L69.7533333,52.5 L65.656,52.5 L65.656,45.7006667 L67.2333333,45.7006667 L67.2333333,51.24 Z M76.828,52.5 L75.6053333,52.5 C75.4684438,52.5 75.3556671,52.4681114 75.267,52.4043333 C75.1783329,52.3405552 75.1168891,52.2588894 75.0826667,52.1593333 L74.6813333,50.974 L72.096,50.974 L71.6946667,52.1593333 C71.6635554,52.2464449 71.6028893,52.3249997 71.5126667,52.395 C71.422444,52.4650004 71.3120007,52.5 71.1813333,52.5 L69.9493333,52.5 L72.5813333,45.7006667 L74.196,45.7006667 L76.828,52.5 Z M72.46,49.9006667 L74.3173333,49.9006667 L73.692,48.0386667 C73.6515554,47.9204439 73.6041114,47.781223 73.5496667,47.621 C73.4952219,47.460777 73.4415558,47.2873343 73.3886667,47.1006667 C73.3388886,47.2904454 73.2875558,47.4662214 73.2346667,47.628 C73.1817775,47.7897786 73.1320002,47.9297772 73.0853333,48.048 L72.46,49.9006667 Z M77.3786667,52.5 L77.3786667,45.7006667 L79.88,45.7006667 C80.3497801,45.7006667 80.7495539,45.7442218 81.0793333,45.8313333 C81.4091128,45.9184449 81.6782212,46.0413325 81.8866667,46.2 C82.0951122,46.3586675 82.2467773,46.5515544 82.3416667,46.7786667 C82.436556,47.0057789 82.484,47.2593319 82.484,47.5393333 C82.484,47.6917785 82.4622224,47.8387771 82.4186667,47.9803333 C82.3751109,48.1218896 82.3066671,48.2548883 82.2133333,48.3793333 C82.1199995,48.5037784 82.000223,48.6165551 81.854,48.7176667 C81.707777,48.8187783 81.532001,48.9066663 81.3266667,48.9813333 C81.7746689,49.0902228 82.1059989,49.2667766 82.3206667,49.511 C82.5353344,49.7552234 82.6426667,50.0686648 82.6426667,50.4513333 C82.6426667,50.7406681 82.5866672,51.0097765 82.4746667,51.2586667 C82.3626661,51.5075568 82.1985566,51.7245546 81.9823333,51.9096667 C81.76611,52.0947787 81.4993349,52.2394439 81.182,52.3436667 C80.8646651,52.4478894 80.5022243,52.5 80.0946667,52.5 L77.3786667,52.5 Z M78.956,49.616 L78.956,51.31 L80.0666667,51.31 C80.2751122,51.31 80.4454438,51.2835558 80.5776667,51.2306667 C80.7098895,51.1777775 80.813333,51.1093338 80.888,51.0253333 C80.962667,50.9413329 81.0139999,50.846445 81.042,50.7406667 C81.0700001,50.6348884 81.084,50.5275561 81.084,50.4186667 C81.084,50.2942216 81.0676668,50.1822227 81.035,50.0826667 C81.0023332,49.9831106 80.9463337,49.8991115 80.867,49.8306667 C80.7876663,49.7622219 80.6826673,49.7093335 80.552,49.672 C80.4213327,49.6346665 80.2564454,49.616 80.0573333,49.616 L78.956,49.616 Z M78.956,48.5613333 L79.7773333,48.5613333 C79.9515564,48.5613333 80.108666,48.548889 80.2486667,48.524 C80.3886674,48.499111 80.5076662,48.4555559 80.6056667,48.3933333 C80.7036672,48.3311108 80.7783331,48.2455561 80.8296667,48.1366667 C80.8810003,48.0277772 80.9066667,47.8908897 80.9066667,47.726 C80.9066667,47.5642214 80.8864446,47.4296672 80.846,47.3223333 C80.8055554,47.2149995 80.7433338,47.128667 80.6593333,47.0633333 C80.5753329,46.9979997 80.4687784,46.9513335 80.3396667,46.9233333 C80.2105549,46.8953332 80.0573342,46.8813333 79.88,46.8813333 L78.956,46.8813333 L78.956,48.5613333 Z M87.2906667,47.082 C87.2439998,47.156667 87.1950003,47.2126665 87.1436667,47.25 C87.0923331,47.2873335 87.0262226,47.306 86.9453333,47.306 C86.8737774,47.306 86.7967782,47.2834447 86.7143333,47.2383333 C86.6318885,47.193222 86.5385561,47.1426669 86.4343333,47.0866667 C86.3301106,47.0306664 86.2111118,46.9801113 86.0773333,46.935 C85.9435549,46.8898887 85.791112,46.8673333 85.62,46.8673333 C85.324443,46.8673333 85.1043341,46.9303327 84.9596667,47.0563333 C84.8149993,47.182334 84.7426667,47.3526656 84.7426667,47.5673333 C84.7426667,47.7042229 84.7862218,47.8177773 84.8733333,47.908 C84.9604449,47.9982227 85.0747771,48.0759997 85.2163333,48.1413333 C85.3578896,48.206667 85.5196658,48.2665553 85.7016667,48.321 C85.8836676,48.3754447 86.0695546,48.4361108 86.2593333,48.503 C86.4491121,48.5698892 86.6349991,48.648444 86.817,48.7386667 C86.9990009,48.8288893 87.1607771,48.9439993 87.3023333,49.084 C87.4438896,49.2240007 87.5582218,49.3943323 87.6453333,49.595 C87.7324449,49.7956677 87.776,50.0375541 87.776,50.3206667 C87.776,50.6348905 87.7215561,50.9288875 87.6126667,51.2026667 C87.5037772,51.4764458 87.3458899,51.7152212 87.139,51.919 C86.9321101,52.1227788 86.6770015,52.2829994 86.3736667,52.3996667 C86.0703318,52.5163339 85.7257797,52.5746667 85.34,52.5746667 C85.1284434,52.5746667 84.9130011,52.5528891 84.6936667,52.5093333 C84.4743322,52.4657776 84.262001,52.4043337 84.0566667,52.325 C83.8513323,52.2456663 83.6584453,52.1515561 83.478,52.0426667 C83.2975547,51.9337772 83.1404451,51.8124451 83.0066667,51.6786667 L83.4733333,50.9413333 C83.5075557,50.8853331 83.5557775,50.8402224 83.618,50.806 C83.6802225,50.7717776 83.7471108,50.7546667 83.8186667,50.7546667 C83.9120005,50.7546667 84.0061106,50.7842219 84.101,50.8433333 C84.1958894,50.9024447 84.3032216,50.9677774 84.423,51.0393333 C84.5427784,51.1108892 84.6804437,51.1762219 84.836,51.2353333 C84.9915563,51.2944447 85.1751101,51.324 85.3866667,51.324 C85.6728903,51.324 85.8953325,51.2610006 86.054,51.135 C86.2126675,51.0089994 86.292,50.8091125 86.292,50.5353333 C86.292,50.3766659 86.2484449,50.2475561 86.1613333,50.148 C86.0742218,50.0484439 85.9598896,49.9660003 85.8183333,49.9006667 C85.6767771,49.835333 85.5157787,49.777778 85.3353333,49.728 C85.154888,49.678222 84.9697787,49.6230003 84.78,49.5623333 C84.5902213,49.5016664 84.405112,49.4270004 84.2246667,49.3383333 C84.0442213,49.2496662 83.8832229,49.1330007 83.7416667,48.9883333 C83.6001104,48.8436659 83.4857782,48.6632233 83.3986667,48.447 C83.3115551,48.2307767 83.268,47.9640016 83.268,47.6466667 C83.268,47.3915543 83.3193328,47.1426679 83.422,46.9 C83.5246672,46.6573321 83.6755546,46.4411121 83.8746667,46.2513333 C84.0737788,46.0615546 84.3179986,45.9098895 84.6073333,45.7963333 C84.8966681,45.6827772 85.2279981,45.626 85.6013333,45.626 C85.8097788,45.626 86.0127768,45.6423332 86.2103333,45.675 C86.4078899,45.7076668 86.5953324,45.7558886 86.7726667,45.8196667 C86.9500009,45.8834448 87.1156659,45.9596662 87.2696667,46.0483333 C87.4236674,46.1370004 87.5613327,46.2373328 87.6826667,46.3493333 L87.2906667,47.082 Z" id="Labs" fill="#32617F"></path>
                <path d="M71.6666667,8.16666667 L71.6666667,16.6515152 L81.3596681,34.2751542 C82.9566064,37.1786783 81.8974093,40.8270239 78.9938852,42.4239621 C78.1080153,42.9111906 77.1133905,43.1666667 76.1023727,43.1666667 L57.8976273,43.1666667 C54.5839188,43.1666667 51.8976273,40.4803752 51.8976273,37.1666667 C51.8976273,36.1556489 52.1531034,35.1610241 52.6403319,34.2751542 L62.3333333,16.6515152 L62.3333333,8.16666667 C61.6890011,8.16666667 61.1666667,7.64433221 61.1666667,7 C61.1666667,6.35566779 61.6890011,5.83333333 62.3333333,5.83333333 L71.6666667,5.83333333 C72.3109989,5.83333333 72.8333333,6.35566779 72.8333333,7 C72.8333333,7.64433221 72.3109989,8.16666667 71.6666667,8.16666667 Z" id="Combined-Shape" fill="#32617F"></path>
                <path d="M46,36.1666667 L46,26.8333333 L50.0833333,26.8333333 L53,32.6666667 L55.9166667,26.8333333 L60,26.8333333 L60,36.1666667 L56.5,36.1666667 L56.5,29.1666667 L53,36.1666667 L51.25,36.1666667 L47.75,29.1666667 L47.75,36.1666667 L46,36.1666667 Z M60.5833333,36.1666667 L64.6666667,26.8333333 L68.1666667,26.8333333 L72.25,36.1666667 L68.75,36.1666667 L68.1666667,34.4166667 L63.5,34.4166667 L62.7416382,36.1666667 L60.5833333,36.1666667 Z M64.0833333,32.6666667 L67.5833333,32.6666667 L65.8333333,29.1666667 L64.0833333,32.6666667 Z M73.4166667,26.8333333 L76.3333333,26.8333333 L76.3333333,36.1666667 L73.4166667,36.1666667 L73.4166667,26.8333333 Z M78.6666667,26.8333333 L88,26.8333333 L88,28.5833333 L81.5833333,28.5833333 L81.5833333,31.5 L88,31.5 L88,33.25 L81.5833333,33.25 L81.5833333,36.1666667 L78.6666667,36.1666667 L78.6666667,26.8333333 Z" id="Combined-Shape" fill="#FFFFFF"></path>
            </g>
        </g>
    </g>
</svg>